OpenSim_Sub07_CSBaseline_LCS.mot
version=1
nRows=79
nColumns=11
inDegrees=no
endheader
time	Bot_Shank	2nd_Bot_Shank	2nd_Top_Shank	Top_Shank	Bot_Thigh	Med_Thigh	Top_Thigh	BNOx	BNOy	BNOZ
58.41000000	9392.24878338	8734.38576886	9989.93123085	10139.31949975	10892.44351026	11295.99356219	12925.12033730	149.93771694	-68.80429824	-116.89035850
58.42000000	9392.00000000	8735.00000000	9984.00000000	10100.00000000	10816.00000000	11231.00000000	12896.00000000	154.06000000	-70.81000000	-98.75000000
58.43000000	9389.50565392	8735.65172147	9981.46083987	10048.66611304	10744.93339541	11151.85933485	12844.59586959	158.84720989	-72.72490561	-64.90556145
58.44000000	9385.17851534	8736.23909262	9981.49095502	9988.26789411	10680.45579912	11063.56965079	12775.45349000	164.10053821	-74.47379140	-19.24065297
58.45000000	9379.54148247	8736.66485975	9982.97513702	9922.60375829	10623.29543627	10972.43491153	12695.09778724	169.56873318	-75.97870054	32.87604144
58.46000000	9373.11745349	8736.83176915	9984.79817747	9855.47212062	10574.18053203	10884.75908083	12610.05368731	175.00054300	-77.16167622	86.07583774
58.47000000	9366.42932660	8736.64256714	9985.84486794	9790.67139617	10533.83931155	10806.84612241	12526.84611623	180.14471587	-77.94476165	134.99005194
58.48000000	9360	8736	9985	9732	10503	10745	12452	184.75000000	-78.25000000	174.25000000
58.49000000	9354.27235751	8734.85487605	9981.45389406	9682.48319987	10482.02211783	10703.96352816	12390.69121192	188.62712550	-78.02423248	199.74932410
58.50000000	9349.36922551	8733.35025169	9975.61898576	9642.05367434	10469.79036676	10682.23492469	12342.69941440	191.83475011	-77.31349234	212.43097115
58.51000000	9345.33341600	8731.67724530	9968.21323960	9609.87095469	10464.82074381	10676.75125822	12306.45521713	194.49351350	-76.18861084	214.50021425
58.52000000	9342.20774097	8730.02697530	9959.95462005	9585.09457218	10465.62924600	10684.44959736	12280.38922980	196.72405531	-74.72041923	208.16232651
58.53000000	9340.03501244	8728.59056008	9951.56109158	9566.88405808	10470.73187035	10702.26701074	12262.93206211	198.64701521	-72.97974878	195.62258102
58.54000000	9338.85804240	8727.55911804	9943.75061868	9554.39894366	10478.64461387	10727.14056697	12252.51432374	200.38303285	-71.03743075	179.08625088
58.55000000	9338.71964287	8727.12376760	9937.24116581	9546.79876019	10487.88347360	10756.00733468	12247.56662440	202.05274789	-68.96429640	160.75860921
58.56000000	9339.66262583	8727.47562715	9932.75069746	9543.24303894	10496.96444655	10785.80438249	12246.51957376	203.77679998	-66.83117699	142.84492909
58.57000000	9341.72980329	8728.80581509	9930.99717811	9542.89131118	10504.40352973	10813.46877903	12247.80378154	205.67582877	-64.70890378	127.55048363
58.58000000	9344.89911337	8731.21436700	9932.52460944	9544.92297295	10508.82505934	10836.24594181	12249.96270905	207.84244887	-62.66369346	116.71839593
58.59000000	9348.79760560	8734.30867160	9936.93606682	9548.62486450	10509.43935410	10853.04907950	12252.15020727	210.21769345	-60.73680358	110.23299975
58.60000000	9352.93423945	8737.53031937	9943.51796087	9553.31998594	10505.65394274	10863.35268884	12253.72555120	212.69158163	-58.96109178	107.31940657
58.61000000	9356.81788541	8740.32077587	9951.55646355	9558.33136467	10496.87650255	10866.63168954	12254.04817065	215.15409408	-57.36940937	107.20223108
58.62000000	9359.95741396	8742.12150663	9960.33774683	9562.98202807	10482.51471087	10862.36100130	12252.47749545	217.49521148	-55.99460768	109.10608799
58.63000000	9361.86169559	8742.37397721	9969.14798269	9566.59500350	10461.97624500	10850.01554382	12248.37295540	219.60491448	-54.86953801	112.25559197
58.64000000	9362.03960078	8740.51965315	9977.27334309	9568.49331835	10434.66878228	10829.07023682	12241.09398031	221.37318377	-54.02705168	115.87535775
58.65000000	9360	8736	9984	9568	10400	10799	12230	222.69000000	-53.50000000	119.19000000
58.66000000	9355.47997625	8728.46161807	9988.78058551	9564.74263203	10357.91699389	10759.80824547	12214.83420663	223.47664876	-53.30840809	121.57999158
58.67000000	9349.12946253	8718.37164673	9991.73357220	9559.56702286	10310.52453322	10713.61235492	12196.87484176	223.77963524	-53.42099625	123.04923796
58.68000000	9341.82660433	8706.40236012	9993.14389276	9553.62353710	10260.46680566	10663.05820245	12177.78390929	223.67676955	-53.79365860	123.75750273
58.69000000	9334.44954716	8693.22603238	9993.29647986	9548.06253937	10210.38799889	10610.79166215	12159.22341312	223.24586178	-54.38228923	123.86454952
58.70000000	9327.87643652	8679.51493764	9992.47626622	9544.03439428	10162.93230057	10559.45860813	12142.85535715	222.56472205	-55.14278227	123.53014193
58.71000000	9322.98541791	8665.94135004	9990.96818451	9542.68946645	10120.74389838	10511.70491446	12130.34174529	221.71116045	-56.03103181	122.91404357
58.72000000	9320.65463684	8653.17754372	9989.05716743	9545.17812050	10086.46698000	10470.17645526	12123.34458145	220.76298709	-57.00293197	122.17601805
58.73000000	9321.76223879	8641.89579281	9987.02814767	9552.65072104	10062.74573308	10437.51910460	12123.52586951	219.79801208	-58.01437686	121.47582899
58.74000000	9327.18636928	8632.76837146	9985.16605792	9566.25763269	10052.22434530	10416.37873660	12132.54761339	218.89404550	-59.02126057	120.97324000
58.75000000	9337.57519494	8626.32952798	9983.71490756	9586.80394346	10056.90278933	10408.84525554	12151.62349734	218.11634717	-59.98519749	120.80447944
58.76000000	9352.33297752	8622.36695962	9982.69736089	9613.22721645	10075.29662111	10414.00144786	12179.54234362	217.46229506	-60.89874161	120.97847879
58.77000000	9370.44534783	8620.41711499	9982.06158941	9643.83650716	10104.74873088	10429.91806718	12214.27689743	216.90642180	-61.76485956	121.46132826
58.78000000	9390.89762122	8620.01625337	9981.75570852	9676.94039744	10142.60112516	10454.66510446	12253.79928899	216.42324281	-62.58652579	122.21908581
58.79000000	9412.67511302	8620.70063403	9981.72783360	9710.84746914	10186.19581048	10486.31255068	12296.08164853	215.98727350	-63.36671476	123.21780937
58.80000000	9434.76313859	8622.00651624	9981.92608002	9743.86630412	10232.87479336	10522.93039681	12339.09610627	215.57302930	-64.10840094	124.42355689
58.81000000	9456.14701325	8623.47015930	9982.29856319	9774.30548423	10279.98008034	10562.58863382	12380.81479243	215.15502561	-64.81455877	125.80238632
58.82000000	9475.81205235	8624.62782247	9982.79339847	9800.47359134	10324.85367793	10603.35725267	12419.20983723	214.70777787	-65.48816271	127.32035558
58.83000000	9492.74357123	8625.01576503	9983.35870126	9820.67920729	10364.83759268	10643.30624434	12452.25337090	214.20580147	-66.13218724	128.94352264
58.84000000	9505.92688523	8624.17024627	9983.94258693	9833.23091394	10397.27383110	10680.50559979	12477.91752366	213.62361185	-66.74960680	130.63794543
58.85000000	9514.59756380	8621.74839178	9984.49022421	9836.87889086	10419.92195114	10713.26144673	12494.59258196	212.94259189	-67.34260729	132.37085495
58.86000000	9519.34474562	8618.06106652	9984.93084395	9832.76182202	10432.79995410	10741.15712425	12502.93054695	212.18126914	-67.90910947	134.11582704
58.87000000	9521.21310733	8613.63914860	9985.18831317	9822.82223250	10436.68591087	10764.20581152	12504.34459031	211.37067205	-68.44559864	135.84857288
58.88000000	9521.24766891	8609.01368198	9985.18649486	9809.00325313	10432.35846509	10782.42101168	12500.24845734	210.54183846	-68.94855906	137.54480522
58.89000000	9520.49345029	8604.71571060	9984.84925201	9793.24801474	10420.59626043	10795.81622782	12492.05589331	209.72580622	-69.41447497	139.18023684
58.90000000	9519.99547143	8601.27627838	9984.10044760	9777.49964817	10402.17794055	10804.40496306	12481.18064350	208.95361319	-69.83983061	140.73058053
58.91000000	9520.66182452	8599.17270239	9982.90351745	9763.48138160	10378.08006413	10808.35174390	12469.01713611	208.25213845	-70.22186140	142.17563019
58.92000000	9522.65998972	8598.59170292	9981.43593805	9751.72703838	10350.34966862	10808.63794904	12456.85531736	207.62576728	-70.56186571	143.51725380
58.93000000	9525.90819736	8599.62220112	9979.94722037	9742.37015272	10321.39405654	10806.51986532	12445.94997051	207.07131473	-70.86250927	144.76474825
58.94000000	9530.32448992	8602.35304446	9978.68692969	9735.54395714	10293.62080193	10803.25398678	12437.55585233	206.58559017	-71.12645886	145.92741602
58.95000000	9535.82690988	8606.87308039	9977.90463127	9731.38168418	10269.43747880	10800.09680741	12432.92771960	206.16540295	-71.35638124	147.01455961
58.96000000	9542.33349974	8613.27115638	9977.84989038	9730.01656639	10251.25166118	10798.30482125	12433.32032908	205.80756243	-71.55494318	148.03548151
58.97000000	9549.76230198	8621.63611987	9978.77227227	9731.58183629	10241.47092308	10799.13452229	12439.98843755	205.50887797	-71.72481144	148.99948421
58.98000000	9558.03135909	8632.05681834	9980.92134222	9736.21072643	10242.50283854	10803.84240457	12454.18680177	205.26615892	-71.86865280	149.91587020
58.99000000	9567.05871356	8644.62209925	9984.54666548	9744.03646935	10256.75498158	10813.68496209	12477.17017850	205.07621465	-71.98913402	150.79394196
59	9576.71288387	8659.30846002	9989.81173785	9755.04008270	10285.83970189	10829.49000866	12509.63160288	204.93482630	-72.08901820	151.64085764
59.01000000	9586.59452405	8675.48472158	9996.41452438	9768.37928743	10327.06815648	10849.76672144	12549.22588167	204.83221354	-72.17158952	152.45217706
59.02000000	9596.21413951	8692.31519390	10003.89631768	9782.93472747	10376.30395407	10872.24395027	12592.58531873	204.75672441	-72.24030749	153.21955666
59.03000000	9605.08216770	8708.96403285	10011.79829232	9797.58683796	10429.40961256	10894.64995690	12636.34144738	204.69670550	-72.29863180	153.93464998
59.04000000	9612.70904609	8724.59539428	10019.66162286	9811.21605401	10482.24764986	10914.71300312	12677.12580093	204.64050342	-72.35002209	154.58911051
59.05000000	9618.60521215	8738.37343403	10027.02748387	9822.70281076	10530.68058387	10930.16135070	12711.56991269	204.57646477	-72.39793802	155.17459177
59.06000000	9622.28110334	8749.46230797	10033.43704990	9830.92754335	10570.57093248	10938.72326141	12736.30531599	204.49293617	-72.44583927	155.68274727
59.07000000	9623.24715711	8757.02617196	10038.43149552	9834.77068689	10597.78121359	10938.12699703	12747.96354414	204.37826420	-72.49718549	156.10523053
59.08000000	9621.01381094	8760.22918184	10041.55199530	9833.11267651	10608.17394511	10926.10081934	12743.17613046	204.22079548	-72.55543634	156.43369506
59.09000000	9615.09150229	8758.23549348	10042.33972380	9824.83394735	10597.61164492	10900.37299010	12718.57460826	204.00887662	-72.62405149	156.65979437
59.10000000	9604.99066861	8750.20926273	10040.33585557	9808.81493454	10561.95683093	10858.67177110	12670.79051086	203.73085421	-72.70649060	156.77518197
59.11000000	9590.22174737	8735.31464545	10035.08156518	9783.93607320	10497.07202104	10798.72542410	12596.45537158	203.37507487	-72.80621332	156.77151139
59.12000000	9570.29517605	8712.71579748	10026.11802720	9749.07779846	10398.81973314	10718.26221089	12492.20072372	202.92988519	-72.92667932	156.64043612
59.13000000	9545.41105444	8682.53081330	10013.36976568	9704.21397105	10267.01830833	10617.33512452	12358.02009719	202.39265797	-73.06893652	156.52145427
59.14000000	9519.49971377	8650.03743058	9998.83475747	9655.23254929	10122.88226166	10508.57111617	12212.09131879	201.80958658	-73.22098823	157.35372262
59.15000000	9497.74687885	8622.24984316	9985.20879121	9610.01185608	9994.82690022	10408.82884954	12078.71206368	201.24329481	-73.36644765	160.34551968
59.16000000	9484.52580604	8605.10936975	9974.80607706	9575.28891351	9907.06774167	10332.55032251	11978.66098806	200.74676271	-73.49142483	166.40213659
59.17000000	9479.81017234	8598.74730682	9967.87410737	9551.61958727	9861.07522038	10281.08907308	11913.65820744	200.32074281	-73.59555256	174.78897556
59.18000000	9482.09299487	8601.33961241	9963.96482931	9537.47950093	9850.66500893	10251.39377336	11879.00976598	199.94841064	-73.68301463	184.21954111
59.19000000	9489.86617498	8611.06077105	9962.62966592	9531.34271044	9869.64701145	10240.40977605	11870.01687431	199.61292851	-73.75799829	193.40692186
